<?xml version="1.0" encoding="utf-8"?>
<!-- Generator: Adobe Illustrator 24.2.1, SVG Export Plug-In . SVG Version: 6.00 Build 0)  -->
<svg version="1.1" id="レイヤー_1" xmlns="http://www.w3.org/2000/svg" xmlns:xlink="http://www.w3.org/1999/xlink" x="0px"
	 y="0px" viewBox="0 0 29 29" style="enable-background:new 0 0 29 29;" xml:space="preserve">
<style type="text/css">
	.st0{fill:#FCFCFC;}
</style>
<g>
	<g>
		<path class="st0" d="M28.7,7.5l-7.2-7.2c-0.3-0.3-0.9-0.3-1.2,0L16.6,4c-0.3,0.3-0.3,0.9,0,1.2L17,5.5l-9.7,4.9
			c-0.2,0.1-0.3,0.3-0.4,0.4l-6.8,17c0,0,0,0,0,0c0,0,0,0,0,0.1c0,0,0,0.1,0,0.2c0,0.2,0,0.4,0.2,0.6c0,0,0,0,0,0
			C0.4,28.9,0.7,29,1,29c0,0,0,0,0.1,0c0,0,0,0,0,0c0,0,0.1,0,0.1,0l17-6.8c0.2-0.1,0.4-0.2,0.4-0.4l4.9-9.7l0.4,0.4
			c0.2,0.2,0.4,0.2,0.6,0.2c0.2,0,0.4-0.1,0.6-0.2l3.7-3.7C29.1,8.3,29.1,7.8,28.7,7.5z M17.2,20.7L4.4,25.8l7.3-7.3
			c0.3,0.2,0.7,0.2,1.1,0.2c1.4,0,2.5-1.1,2.5-2.5s-1.1-2.5-2.5-2.5s-2.5,1.1-2.5,2.5c0,0.4,0.1,0.8,0.2,1.1l-7.3,7.3l5.1-12.8
			l9.9-5l3.9,3.9L17.2,20.7z M11.9,16.3c0-0.5,0.4-0.8,0.8-0.8c0.5,0,0.8,0.4,0.8,0.8c0,0.5-0.4,0.8-0.8,0.8
			C12.3,17.1,11.9,16.7,11.9,16.3z M24.4,10.6L23.8,10c0,0,0,0,0,0L19,5.2c0,0,0,0,0,0l-0.6-0.6l2.5-2.5l6,6L24.4,10.6z"/>
	</g>
</g>
</svg>
