<?xml version="1.0" encoding="utf-8"?>
<!-- Generator: Adobe Illustrator 24.2.1, SVG Export Plug-In . SVG Version: 6.00 Build 0)  -->
<svg version="1.1" id="icon" xmlns="http://www.w3.org/2000/svg" xmlns:xlink="http://www.w3.org/1999/xlink" x="0px" y="0px"
	 viewBox="0 0 28 28" style="enable-background:new 0 0 28 28;" xml:space="preserve">
<style type="text/css">
	.st0{enable-background:new    ;}
	.st1{fill:#4C4C4C;}
</style>
<g class="st0">
	<path class="st1" d="M10,19.6V8.1h4.3c0.9,0,1.6,0.1,2.1,0.3c0.5,0.2,0.9,0.6,1.2,1.1c0.3,0.5,0.4,1,0.4,1.5c0,0.5-0.1,1-0.4,1.4
		c-0.3,0.4-0.7,0.8-1.2,1c0.7,0.2,1.2,0.5,1.6,1c0.4,0.5,0.6,1.1,0.6,1.7c0,0.5-0.1,1-0.3,1.5s-0.5,0.8-0.8,1.1s-0.8,0.4-1.3,0.6
		c-0.5,0.1-1.1,0.2-1.8,0.2H10z M11.5,13h2.5c0.7,0,1.2,0,1.4-0.1c0.4-0.1,0.7-0.3,0.9-0.6s0.3-0.6,0.3-1c0-0.4-0.1-0.7-0.3-1
		s-0.4-0.5-0.8-0.6c-0.3-0.1-0.9-0.2-1.7-0.2h-2.3V13z M11.5,18.2h2.9c0.5,0,0.8,0,1-0.1c0.3-0.1,0.6-0.2,0.9-0.3
		c0.2-0.1,0.4-0.4,0.6-0.6c0.2-0.3,0.2-0.6,0.2-1c0-0.4-0.1-0.8-0.3-1.1c-0.2-0.3-0.5-0.5-0.9-0.7s-0.9-0.2-1.7-0.2h-2.6V18.2z"/>
</g>
<path class="st1" d="M14,28C6.3,28,0,21.7,0,14S6.3,0,14,0s14,6.3,14,14S21.7,28,14,28z M14,2C7.4,2,2,7.4,2,14c0,6.6,5.4,12,12,12
	c6.6,0,12-5.4,12-12C26,7.4,20.6,2,14,2z"/>
</svg>
