<?xml version="1.0" encoding="utf-8"?>
<!-- Generator: Adobe Illustrator 24.2.1, SVG Export Plug-In . SVG Version: 6.00 Build 0)  -->
<svg version="1.1" id="bg" xmlns="http://www.w3.org/2000/svg" xmlns:xlink="http://www.w3.org/1999/xlink" x="0px" y="0px"
	 viewBox="0 0 756.1 517.3" style="enable-background:new 0 0 756.1 517.3;" xml:space="preserve">
<style type="text/css">
	.st0{opacity:0.95;fill-rule:evenodd;clip-rule:evenodd;fill:#FFFFFF;enable-background:new    ;}
	.st1{opacity:0.1;fill:#0056D7;enable-background:new    ;}
	.st2{fill:#0056D7;}
</style>
<g>
	<path id="長方形_20" class="st0" d="M35.1,6.6h686c16.6,0,30,13.4,30,30l0,0v444c0,16.6-13.4,30-30,30h-686
		c-16.6,0-30-13.4-30-30v-444C5.1,20,18.6,6.6,35.1,6.6L35.1,6.6z"/>
	<path class="st1" d="M378,81.4c116.3,0,226.3-26.9,324.1-74.8H53.9C151.7,54.5,261.7,81.4,378,81.4z"/>
	<path class="st2" d="M721.1,6.6h-686c-9.2,0-17.5,4.2-23,10.7h732C738.6,10.7,730.4,6.6,721.1,6.6z"/>
	<path class="st2" d="M35.1,510.6h686c8.6,0,16.4-3.7,21.9-9.5H13.3C18.7,506.9,26.5,510.6,35.1,510.6z"/>
</g>
</svg>
